<?xml version="1.0" encoding="utf-8" ?>
<svg baseProfile="tiny" height="1024px" version="1.2" width="1024px" viewBox="190 172 640 640" xmlns="http://www.w3.org/2000/svg" xmlns:ev="http://www.w3.org/2001/xml-events" xmlns:xlink="http://www.w3.org/1999/xlink">
<defs /><path d="M 713,357 L 712,358 L 711,358 L 710,359 L 709,359 L 703,365 L 703,366 L 702,367 L 702,371 L 701,372 L 701,388 L 700,389 L 700,442 L 699,443 L 661,443 L 660,444 L 657,444 L 656,445 L 655,445 L 654,446 L 653,446 L 651,448 L 650,448 L 646,452 L 646,453 L 644,455 L 644,457 L 643,458 L 643,459 L 642,460 L 642,462 L 641,463 L 641,668 L 642,669 L 642,673 L 643,674 L 643,676 L 644,677 L 644,678 L 645,679 L 645,680 L 647,682 L 647,683 L 649,685 L 650,685 L 653,688 L 654,688 L 655,689 L 656,689 L 657,690 L 659,690 L 660,691 L 664,691 L 665,692 L 699,692 L 700,693 L 700,775 L 701,776 L 701,779 L 702,780 L 702,782 L 703,783 L 703,784 L 708,789 L 709,789 L 710,790 L 711,790 L 712,791 L 714,791 L 715,792 L 720,792 L 721,791 L 723,791 L 724,790 L 725,790 L 726,789 L 727,789 L 732,784 L 732,783 L 733,782 L 733,780 L 734,779 L 734,776 L 735,775 L 735,692 L 736,691 L 772,691 L 773,690 L 774,691 L 775,690 L 777,690 L 778,689 L 779,689 L 780,688 L 781,688 L 782,687 L 783,687 L 789,681 L 789,680 L 791,678 L 791,676 L 792,675 L 792,673 L 793,672 L 793,471 L 794,470 L 793,469 L 793,464 L 792,463 L 792,461 L 791,460 L 791,459 L 790,458 L 790,457 L 789,456 L 789,455 L 783,449 L 782,449 L 781,448 L 780,448 L 779,447 L 778,447 L 777,446 L 776,446 L 775,445 L 736,445 L 735,444 L 735,375 L 734,374 L 734,369 L 733,368 L 733,367 L 732,366 L 732,365 L 726,359 L 725,359 L 724,358 L 723,358 L 722,357 Z" fill="#ffcf13" /><path d="M 300,357 L 299,358 L 297,358 L 296,359 L 295,359 L 293,361 L 292,361 L 289,364 L 289,365 L 288,366 L 288,368 L 287,369 L 287,371 L 286,372 L 286,442 L 285,443 L 250,443 L 249,444 L 245,444 L 244,445 L 242,445 L 241,446 L 240,446 L 238,448 L 237,448 L 233,452 L 233,453 L 231,455 L 231,456 L 230,457 L 230,458 L 229,459 L 229,461 L 228,462 L 228,478 L 227,479 L 228,480 L 228,490 L 227,491 L 228,492 L 228,493 L 227,494 L 227,495 L 228,496 L 228,498 L 227,499 L 227,500 L 228,501 L 228,511 L 227,512 L 227,518 L 228,519 L 228,522 L 227,523 L 227,527 L 228,528 L 228,531 L 227,532 L 227,534 L 228,535 L 228,536 L 227,537 L 227,540 L 228,541 L 227,542 L 228,543 L 228,546 L 227,547 L 228,548 L 227,549 L 228,550 L 228,553 L 227,554 L 227,556 L 228,557 L 228,565 L 227,566 L 228,567 L 228,568 L 227,569 L 228,570 L 228,577 L 227,578 L 227,581 L 228,582 L 228,586 L 227,587 L 227,589 L 228,590 L 227,591 L 228,592 L 227,593 L 228,594 L 227,595 L 227,596 L 228,597 L 228,604 L 227,605 L 228,606 L 228,608 L 227,609 L 228,610 L 228,614 L 227,615 L 228,616 L 228,619 L 227,620 L 227,623 L 228,624 L 227,625 L 228,626 L 228,633 L 227,634 L 228,635 L 227,636 L 227,639 L 228,640 L 228,642 L 227,643 L 228,644 L 228,646 L 227,647 L 228,648 L 228,663 L 227,664 L 228,665 L 228,666 L 227,667 L 228,668 L 228,673 L 229,674 L 229,677 L 230,678 L 230,679 L 231,680 L 231,681 L 233,683 L 233,684 L 238,689 L 239,689 L 240,690 L 241,690 L 242,691 L 243,691 L 244,692 L 246,692 L 247,693 L 250,693 L 251,694 L 285,694 L 286,695 L 286,777 L 287,778 L 287,781 L 288,782 L 288,783 L 289,784 L 289,785 L 293,789 L 294,789 L 296,791 L 298,791 L 299,792 L 306,792 L 307,791 L 310,791 L 311,790 L 312,790 L 317,785 L 317,784 L 318,783 L 318,782 L 319,781 L 319,779 L 320,778 L 320,693 L 321,692 L 322,693 L 349,693 L 350,692 L 351,692 L 352,693 L 355,693 L 356,692 L 360,692 L 361,691 L 363,691 L 364,690 L 365,690 L 366,689 L 367,689 L 368,688 L 369,688 L 374,683 L 374,682 L 376,680 L 376,679 L 377,678 L 377,677 L 378,676 L 378,673 L 379,672 L 379,468 L 378,467 L 378,463 L 377,462 L 377,461 L 376,460 L 376,459 L 375,458 L 375,457 L 374,456 L 374,455 L 369,450 L 368,450 L 367,449 L 366,449 L 364,447 L 362,447 L 361,446 L 359,446 L 358,445 L 321,445 L 320,444 L 320,375 L 319,374 L 320,373 L 320,372 L 319,371 L 319,369 L 318,368 L 318,367 L 317,366 L 317,365 L 311,359 L 309,359 L 308,358 L 306,358 L 305,357 Z" fill="#FED540" /><path d="M 507,203 L 506,204 L 504,204 L 502,206 L 501,206 L 500,207 L 499,207 L 499,208 L 496,211 L 496,212 L 495,213 L 495,214 L 494,215 L 494,217 L 493,218 L 493,292 L 492,293 L 450,293 L 449,294 L 447,294 L 446,295 L 445,295 L 444,296 L 443,296 L 442,297 L 441,297 L 434,304 L 434,305 L 433,306 L 433,307 L 432,308 L 432,309 L 431,310 L 431,312 L 430,313 L 430,319 L 429,320 L 429,607 L 430,608 L 430,615 L 431,616 L 431,619 L 432,620 L 432,621 L 433,622 L 433,623 L 435,625 L 435,626 L 440,631 L 441,631 L 443,633 L 444,633 L 445,634 L 446,634 L 447,635 L 449,635 L 450,636 L 453,636 L 454,637 L 492,637 L 493,638 L 493,728 L 494,729 L 494,731 L 495,732 L 495,733 L 496,734 L 496,735 L 501,740 L 502,740 L 503,741 L 504,741 L 505,742 L 508,742 L 509,743 L 514,743 L 515,742 L 516,742 L 517,741 L 518,741 L 519,740 L 520,740 L 522,738 L 523,738 L 524,737 L 524,736 L 526,734 L 526,733 L 527,732 L 527,731 L 528,730 L 528,727 L 529,726 L 529,637 L 528,636 L 529,635 L 570,635 L 571,634 L 573,634 L 574,633 L 576,633 L 577,632 L 578,632 L 580,630 L 581,630 L 587,624 L 587,623 L 588,622 L 588,621 L 589,620 L 589,619 L 590,618 L 590,617 L 591,616 L 591,341 L 592,340 L 592,319 L 591,318 L 591,314 L 590,313 L 590,311 L 589,310 L 589,309 L 587,307 L 587,306 L 585,304 L 585,303 L 583,301 L 582,301 L 580,299 L 579,299 L 577,297 L 575,297 L 574,296 L 571,296 L 570,295 L 529,295 L 528,294 L 528,216 L 527,215 L 527,214 L 526,213 L 526,212 L 525,211 L 525,210 L 521,206 L 520,206 L 519,205 L 518,205 L 517,204 L 515,204 L 514,203 Z" fill="#1F6BA6" /></svg>
